# xmcd
#
# Track frame offsets:
#	150
#	9049
#	17521
#	27502
#	34317
#	40107
#	46006
#	54180
#	68109
#	92492
#	104473
#	123105
#	138707
#	144362
#	154451
#	162096
#
# Disc length: 2308 seconds
#
# Revision: 0
# Processed by: cddbd v1.5.2PL0 Copyright (c) Steve Scherf et al.
# Submitted via: EZCDAudioConverter 2.1.7.1
#
DISCID=c2090210
DTITLE=Mark Korven - The VVitch
DYEAR=2016
DGENRE=
TTITLE0=What Went We
TTITLE1=Banished
TTITLE2=A Witch Stole Sam
TTITLE3=Hare In The Woods
TTITLE4=I Am The Witch Mercy
TTITLE5=Foster The Children
TTITLE6=Caleb Is Lost
TTITLE7=Caleb's Seduction
TTITLE8=Caleb's Death
TTITLE9=William And Tomasin
TTITLE10=William's Confession
TTITLE11=The Goat and The Mayhem
TTITLE12=Follow The Goat
TTITLE13=Witch's Coven
TTITLE14=Isle Of Wight (Traditional)
TTITLE15=Standish (Traditional)
EXTD=
EXTT0=
EXTT1=
EXTT2=
EXTT3=
EXTT4=
EXTT5=
EXTT6=
EXTT7=
EXTT8=
EXTT9=
EXTT10=
EXTT11=
EXTT12=
EXTT13=
EXTT14=
EXTT15=
PLAYORDER=
